<svg width="24" height="24" viewBox="0 0 24 24" fill="none" xmlns="http://www.w3.org/2000/svg">
<path d="M16.7571 21.5482C16.0087 21.5191 15.1122 21.2964 14.1328 20.8827C11.9856 19.9765 9.6778 18.2606 7.63453 16.0521C5.59067 13.843 4.05907 11.4084 3.32159 9.19736C2.65144 7.18704 2.71282 5.5608 3.48646 4.84563C3.5977 4.74271 3.71106 4.63199 3.82819 4.51779C4.53535 3.82972 5.3343 3.05554 6.35046 3.13139C7.0505 3.18767 7.71296 3.64965 8.37504 4.5424C10.3314 7.1789 9.36918 8.05398 8.25551 9.06858L8.05886 9.24876C7.8766 9.41739 7.5135 10.217 10.4778 13.421C11.4454 14.4668 12.2752 15.237 12.9439 15.7095C13.365 16.007 14.121 16.4617 14.4503 16.157L14.6484 15.9721C15.7451 14.9429 16.692 14.0545 19.167 16.2076C20.0057 16.937 20.4143 17.6327 20.4161 18.3362C20.4183 19.3548 19.5783 20.0928 18.8369 20.7438C18.7145 20.8517 18.5954 20.9562 18.4841 21.0585C18.1001 21.4144 17.5018 21.5771 16.7571 21.5482Z" stroke="#EF4D9C" stroke-width="1.8"/>
</svg>
