<svg width="24" height="21" viewBox="0 0 24 21" fill="none" xmlns="http://www.w3.org/2000/svg">
<path fill-rule="evenodd" clip-rule="evenodd" d="M7.09266 14.4287C5.84382 13.0756 4.59497 11.7226 3.34612 10.3695C2.56388 9.62792 2.71484 9.52384 1.71302 10.4866C1.26014 10.9289 0.779814 11.4884 0.436725 11.8917C-0.098495 12.5422 -0.180836 12.9716 0.409278 13.6351C2.48154 15.9509 4.54008 18.2537 6.61234 20.5695C7.29852 21.3241 8.23172 20.9989 8.78066 20.2703C13.7074 13.7392 18.6205 6.99986 23.808 0.676895C24.0825 0.325619 24.1374 -0.0126466 23.4649 0.000363572C22.1749 0.0393942 21.3926 0.247558 20.3085 1.21031C15.9581 4.99629 11.594 9.56287 7.09266 14.4287Z" fill="#EF4D9C"/>
</svg>
